<?xml version="1.0" encoding="utf-8"?>
<!-- Generator: Adobe Illustrator 25.2.0, SVG Export Plug-In . SVG Version: 6.00 Build 0)  -->
<svg version="1.1" id="Layer_1" xmlns="http://www.w3.org/2000/svg" xmlns:xlink="http://www.w3.org/1999/xlink" x="0px" y="0px"
	 viewBox="0 0 160.4 210.5" style="enable-background:new 0 0 160.4 210.5;" xml:space="preserve">
<style type="text/css">
	.st0{fill:#010101;}
	.st1{fill:#FFFFFF;stroke:#000000;stroke-miterlimit:10;}
	.st2{fill:#FFFFFF;}
	.st3{fill:#010101;stroke:#FFFFFF;stroke-miterlimit:10;}
</style>
<g>
	<g transform="translate(0.000000,1280.000000) scale(0.100000,-0.100000)">
		<path class="st0" d="M479.1,12496.9l-478.9-303l-0.2-13.2v-13.2l61-106.1c33.4-58.4,74.7-129.9,91.4-159.2l30.4-53.1l72.7,37
			c61.8,31.4,216.3,109.2,220.2,110.8c0.7,0.3,1.1-292.6,1.1-650.8v-651.5h16.9c10.5,0,32.2,2.1,57.2,5.8
			c40,5.6,116.4,16.5,249.8,35.2c38.5,5.4,96.6,13.7,129.1,18.3c32.6,4.4,61.7,8.5,64.6,9l5.3,1v1017.9V12800l-20.9-0.2l-21.1-0.2
			L479.1,12496.9z"/>
	</g>
</g>
<ellipse class="st1" cx="53.6" cy="38.9" rx="14.5" ry="18"/>
<ellipse class="st1" cx="85.9" cy="47.3" rx="14.5" ry="18"/>
<circle cx="56.8" cy="40.5" r="6.8"/>
<circle cx="85.9" cy="47.3" r="6.8"/>
<g>
	<g>
		<polygon class="st2" points="75.2,98 83.3,102.4 83.3,86.8 74.7,91.5 69.4,91.5 60.7,86.8 60.7,102.4 68.9,98 		"/>
		<rect x="68.8" y="101.6" class="st2" width="6.4" height="6.5"/>
		<rect x="68.8" y="111.6" class="st2" width="6.4" height="6.5"/>
		<polygon class="st2" points="89.7,93.6 72,127.5 54.4,93.6 43.7,93.6 67.8,128.9 71.3,128.9 72.8,128.9 76.3,128.9 100.4,93.6 		
			"/>
	</g>
</g>
<g>
	<g>
		<polygon class="st3" points="109.2,96.4 106.1,81.8 109.2,77.1 106.2,63.2 114.8,61.5 118.1,77.3 136.8,48.6 143.8,53.1 
			129.9,74.4 147.5,47.5 154.5,52.1 137,78.9 152.2,55.6 158.9,60 143.7,83.3 154,67.5 160.4,71.7 137.4,107 128.4,108.8 
			119.6,122.3 100.4,109.8 		"/>
	</g>
</g>
<rect x="45.8" y="134.1" transform="matrix(0.5834 -0.8122 0.8122 0.5834 -82.0648 132.4535)" class="st0" width="84.6" height="24.2"/>
</svg>
